<?xml version="1.0" encoding="utf-8"?>
<!-- Generator: Adobe Illustrator 26.3.1, SVG Export Plug-In . SVG Version: 6.00 Build 0)  -->
<svg version="1.1" id="vueStore" xmlns="http://www.w3.org/2000/svg" xmlns:xlink="http://www.w3.org/1999/xlink" x="0px" y="0px"
	 viewBox="0 0 48 48" style="enable-background:new 0 0 48 48;" xml:space="preserve">
<style type="text/css">
	.st0{fill:#FFFFFF;}
</style>
<g>
	<g>
		<g>
			<path d="M39.4,29.8L34,35.2c-5.5,5.5-14.5,5.5-20,0l-5.3-5.3c-2.9-2.9-0.8-7.7,3.2-7.7h24.3C40.2,22.1,42.2,27,39.4,29.8z"/>
		</g>
		<g>
			<g>
				<g>
					<circle class="st0" cx="19.7" cy="28" r="1.1"/>
				</g>
			</g>
			<g>
				<g>
					<circle class="st0" cx="28.3" cy="28" r="1.1"/>
				</g>
			</g>
		</g>
		<g>
			<g>
				<path class="st0" d="M24.2,34.3c-1.4,0-2.8-0.5-3.9-1.6c-0.4-0.4-0.4-0.9,0-1.3c0.4-0.4,0.9-0.4,1.3,0c0.7,0.7,1.6,1.1,2.5,1.1
					c1,0,1.9-0.4,2.5-1.1c0.4-0.4,0.9-0.4,1.3,0c0.4,0.4,0.4,0.9,0,1.3C27,33.7,25.6,34.3,24.2,34.3z"/>
			</g>
		</g>
		<g>
			<g>
				<path d="M20.1,8.7c-5.5,0.5-9.8,5.1-9.8,10.7c0,0.7,0.6,1.3,1.3,1.3c0.7,0,1.3-0.6,1.3-1.3c0-2.5,1.2-4.8,3-6.3
					C16.9,11.3,18.3,9.8,20.1,8.7z"/>
			</g>
			<g>
				<path d="M33.7,11.2c-1.9-1.6-4.3-2.5-6.9-2.5c-1,0-1.9,0.1-2.8,0.4c-1.6,0.4-3.1,1.2-4.3,2.3c-2.2,2-3.7,4.8-3.7,8v0.1
					c0,0.7,0.6,1.3,1.3,1.3c0.7,0,1.3-0.6,1.3-1.3c0-3.6,2.3-6.6,5.4-7.8c3.2,1.2,5.4,4.2,5.4,7.8c0,0.7,0.6,1.3,1.3,1.3
					c0.7,0,1.3-0.6,1.3-1.3c0-3.2-1.4-6.1-3.7-8.1c1.4,0.2,2.6,0.8,3.7,1.7c1.9,1.5,3.1,3.8,3.1,6.4c0,0,0,0.1,0,0.1
					c0,0.7,0.6,1.3,1.3,1.3c0.7,0,1.3-0.6,1.3-1.3C37.6,16.2,36.1,13.2,33.7,11.2z"/>
			</g>
		</g>
	</g>
</g>
</svg>
