<?xml version="1.0" encoding="utf-8"?>
<!-- Generator: Adobe Illustrator 26.3.1, SVG Export Plug-In . SVG Version: 6.00 Build 0)  -->
<svg version="1.1" id="vueStore" xmlns="http://www.w3.org/2000/svg" xmlns:xlink="http://www.w3.org/1999/xlink" x="0px" y="0px"
	 viewBox="0 0 180 48" style="enable-background:new 0 0 180 48;" xml:space="preserve">
<style type="text/css">
	.st0{fill:#FFFFFF;}
</style>
<g>
	<g>
		<path d="M59.9,28.4H60l3.7-12.1h4.5l-5.6,16.6h-5.3l-5.6-16.6h4.5L59.9,28.4z"/>
		<path d="M84,16.3v10.7c0,3.7-2.8,6.1-7,6.1c-4.2,0-7-2.4-7-6.1V16.3h4v10.3c0,1.7,1.2,3,3,3c1.8,0,3-1.2,3-3V16.3H84z"/>
		<path d="M86.5,16.3H98v3.2h-7.5v3.4h6.9v3.3h-6.9v3.4H98v3.2H86.5V16.3z"/>
		<path d="M106.5,17.4c-2.3,0-3.9,1.3-3.9,3.1c0,1.7,1.7,2.6,3.3,3l1.7,0.5c2.1,0.6,4.5,1.7,4.5,4.4c0,2.7-2.1,4.7-5.7,4.7
			c-3.4,0-5.5-1.8-5.7-4.4h1.6c0.2,2,1.9,3,4.1,3c2.5,0,4.3-1.3,4.3-3.3c0-1.7-1.4-2.5-3.5-3.1l-2-0.6c-2.6-0.8-4.1-2.1-4.1-4.2
			c0-2.7,2.4-4.5,5.4-4.5c3.1,0,5.3,1.9,5.4,4.4h-1.5C110.3,18.6,108.7,17.4,106.5,17.4z"/>
		<path d="M114.8,16.3h12v1.4h-5.2v15.2H120V17.6h-5.2V16.3z"/>
		<path d="M135.9,33.1c-4.2,0-7.2-3.3-7.2-8.5s3-8.5,7.2-8.5c4.2,0,7.2,3.3,7.2,8.5S140.1,33.1,135.9,33.1z M135.9,17.5
			c-3.2,0-5.7,2.6-5.7,7.1c0,4.4,2.4,7.1,5.7,7.1c3.3,0,5.7-2.6,5.7-7.1C141.6,20.1,139.2,17.5,135.9,17.5z"/>
		<path d="M146.7,16.3h5.3c3.5,0,5.3,2.1,5.3,5c0,2.2-1.1,3.9-3.1,4.6l3.8,7h-1.7l-3.6-6.7c-0.2,0-0.4,0-0.6,0h-3.9v6.7h-1.5V16.3z
			 M152.1,24.8c2.6,0,3.9-1.4,3.9-3.5s-1.3-3.6-3.9-3.6h-3.8v7.1H152.1z"/>
		<path d="M161.1,16.3h9.6v1.4h-8.1v6.2h7.6v1.4h-7.6v6.2h8.3v1.4h-9.8V16.3z"/>
	</g>
	<g>
		<g>
			<path d="M41.2,30.4l-5.3,5.3c-5.5,5.5-14.5,5.5-20,0l-5.3-5.3c-2.9-2.9-0.8-7.7,3.2-7.7H38C42,22.7,44.1,27.5,41.2,30.4z"/>
		</g>
		<g>
			<g>
				<g>
					<circle class="st0" cx="21.5" cy="28.6" r="1.1"/>
				</g>
			</g>
			<g>
				<g>
					<circle class="st0" cx="30.1" cy="28.6" r="1.1"/>
				</g>
			</g>
		</g>
		<g>
			<g>
				<path class="st0" d="M26,34.8c-1.4,0-2.8-0.5-3.9-1.6c-0.4-0.4-0.4-0.9,0-1.3c0.4-0.4,0.9-0.4,1.3,0c0.7,0.7,1.6,1.1,2.5,1.1
					c1,0,1.9-0.4,2.5-1.1c0.4-0.4,0.9-0.4,1.3,0c0.4,0.4,0.4,0.9,0,1.3C28.8,34.3,27.4,34.8,26,34.8z"/>
			</g>
		</g>
		<g>
			<g>
				<path d="M22,9.3c-5.5,0.5-9.8,5.1-9.8,10.7c0,0.7,0.6,1.3,1.3,1.3c0.7,0,1.3-0.6,1.3-1.3c0-2.5,1.2-4.8,3-6.3
					C18.7,11.9,20.2,10.3,22,9.3z"/>
			</g>
			<g>
				<path d="M35.6,11.8c-1.9-1.6-4.3-2.5-6.9-2.5c-1,0-1.9,0.1-2.8,0.4c-1.6,0.4-3.1,1.2-4.3,2.3c-2.2,2-3.7,4.8-3.7,8V20
					c0,0.7,0.6,1.3,1.3,1.3c0.7,0,1.3-0.6,1.3-1.3c0-3.6,2.3-6.6,5.4-7.8c3.2,1.2,5.4,4.2,5.4,7.8c0,0.7,0.6,1.3,1.3,1.3
					c0.7,0,1.3-0.6,1.3-1.3c0-3.2-1.4-6.1-3.7-8.1c1.4,0.2,2.6,0.8,3.7,1.7c1.9,1.5,3.1,3.8,3.1,6.4c0,0,0,0.1,0,0.1
					c0,0.7,0.6,1.3,1.3,1.3c0.7,0,1.3-0.6,1.3-1.3C39.5,16.7,38,13.8,35.6,11.8z"/>
			</g>
		</g>
	</g>
</g>
</svg>
